<svg width="158" height="158" viewBox="0 0 158 158" fill="none" xmlns="http://www.w3.org/2000/svg">
<rect width="158" height="158" rx="10" fill="#E0E7FF"/>
<path d="M49.25 52V43.732H46.052V42.9H53.41V43.732H50.212V52H49.25ZM58.648 52V50.492L58.609 50.245V47.723C58.609 47.1423 58.4443 46.696 58.115 46.384C57.7943 46.072 57.3133 45.916 56.672 45.916C56.23 45.916 55.8097 45.9897 55.411 46.137C55.0123 46.2843 54.6743 46.4793 54.397 46.722L53.981 46.033C54.3277 45.7383 54.7437 45.513 55.229 45.357C55.7143 45.1923 56.2257 45.11 56.763 45.11C57.647 45.11 58.3273 45.331 58.804 45.773C59.2893 46.2063 59.532 46.8693 59.532 47.762V52H58.648ZM56.295 52.065C55.7837 52.065 55.3373 51.9827 54.956 51.818C54.5833 51.6447 54.2973 51.4107 54.098 51.116C53.8987 50.8127 53.799 50.466 53.799 50.076C53.799 49.7207 53.8813 49.4 54.046 49.114C54.2193 48.8193 54.4967 48.5853 54.878 48.412C55.268 48.23 55.788 48.139 56.438 48.139H58.791V48.828H56.464C55.8053 48.828 55.346 48.945 55.086 49.179C54.8347 49.413 54.709 49.7033 54.709 50.05C54.709 50.44 54.8607 50.752 55.164 50.986C55.4673 51.22 55.892 51.337 56.438 51.337C56.958 51.337 57.4043 51.22 57.777 50.986C58.1583 50.7433 58.4357 50.3967 58.609 49.946L58.817 50.583C58.6437 51.0337 58.3403 51.3933 57.907 51.662C57.4823 51.9307 56.945 52.065 56.295 52.065ZM56.958 44.2L56.633 43.797C56.893 43.6757 57.0837 43.5413 57.205 43.394C57.335 43.2467 57.4 43.0733 57.4 42.874C57.4 42.692 57.335 42.5403 57.205 42.419C57.075 42.2977 56.9017 42.237 56.685 42.237C56.4163 42.237 56.1563 42.3193 55.905 42.484L55.684 42.029C55.8313 41.9163 56.0003 41.834 56.191 41.782C56.3903 41.7213 56.581 41.691 56.763 41.691C57.127 41.691 57.4217 41.795 57.647 42.003C57.881 42.2023 57.998 42.471 57.998 42.809C57.998 43.1123 57.9113 43.381 57.738 43.615C57.5733 43.8403 57.3133 44.0353 56.958 44.2ZM62.039 52V45.175H62.962V52H62.039ZM62.507 43.667C62.3163 43.667 62.156 43.602 62.026 43.472C61.896 43.342 61.831 43.186 61.831 43.004C61.831 42.822 61.896 42.6703 62.026 42.549C62.156 42.419 62.3163 42.354 62.507 42.354C62.6976 42.354 62.858 42.4147 62.988 42.536C63.118 42.6573 63.183 42.809 63.183 42.991C63.183 43.1817 63.118 43.342 62.988 43.472C62.8666 43.602 62.7063 43.667 62.507 43.667ZM73.2095 52V50.492L73.1705 50.245V47.723C73.1705 47.1423 73.0058 46.696 72.6765 46.384C72.3558 46.072 71.8748 45.916 71.2335 45.916C70.7915 45.916 70.3712 45.9897 69.9725 46.137C69.5738 46.2843 69.2358 46.4793 68.9585 46.722L68.5425 46.033C68.8892 45.7383 69.3052 45.513 69.7905 45.357C70.2758 45.1923 70.7872 45.11 71.3245 45.11C72.2085 45.11 72.8888 45.331 73.3655 45.773C73.8508 46.2063 74.0935 46.8693 74.0935 47.762V52H73.2095ZM70.8565 52.065C70.3452 52.065 69.8988 51.9827 69.5175 51.818C69.1448 51.6447 68.8588 51.4107 68.6595 51.116C68.4602 50.8127 68.3605 50.466 68.3605 50.076C68.3605 49.7207 68.4428 49.4 68.6075 49.114C68.7808 48.8193 69.0582 48.5853 69.4395 48.412C69.8295 48.23 70.3495 48.139 70.9995 48.139H73.3525V48.828H71.0255C70.3668 48.828 69.9075 48.945 69.6475 49.179C69.3962 49.413 69.2705 49.7033 69.2705 50.05C69.2705 50.44 69.4222 50.752 69.7255 50.986C70.0288 51.22 70.4535 51.337 70.9995 51.337C71.5195 51.337 71.9658 51.22 72.3385 50.986C72.7198 50.7433 72.9972 50.3967 73.1705 49.946L73.3785 50.583C73.2052 51.0337 72.9018 51.3933 72.4685 51.662C72.0438 51.9307 71.5065 52.065 70.8565 52.065ZM71.5195 44.2L71.1945 43.797C71.4545 43.6757 71.6452 43.5413 71.7665 43.394C71.8965 43.2467 71.9615 43.0733 71.9615 42.874C71.9615 42.692 71.8965 42.5403 71.7665 42.419C71.6365 42.2977 71.4632 42.237 71.2465 42.237C70.9778 42.237 70.7178 42.3193 70.4665 42.484L70.2455 42.029C70.3928 41.9163 70.5618 41.834 70.7525 41.782C70.9518 41.7213 71.1425 41.691 71.3245 41.691C71.6885 41.691 71.9832 41.795 72.2085 42.003C72.4425 42.2023 72.5595 42.471 72.5595 42.809C72.5595 43.1123 72.4728 43.381 72.2995 43.615C72.1348 43.8403 71.8748 44.0353 71.5195 44.2ZM80.0845 45.11C80.6391 45.11 81.1245 45.2183 81.5405 45.435C81.9651 45.643 82.2945 45.9637 82.5285 46.397C82.7711 46.8303 82.8925 47.3763 82.8925 48.035V52H81.9695V48.126C81.9695 47.4067 81.7875 46.865 81.4235 46.501C81.0681 46.1283 80.5655 45.942 79.9155 45.942C79.4301 45.942 79.0055 46.0417 78.6415 46.241C78.2861 46.4317 78.0088 46.7133 77.8095 47.086C77.6188 47.45 77.5235 47.892 77.5235 48.412V52H76.6005V45.175H77.4845V47.047L77.3415 46.696C77.5581 46.202 77.9048 45.8163 78.3815 45.539C78.8581 45.253 79.4258 45.11 80.0845 45.11ZM88.8696 45.11C89.4243 45.11 89.9096 45.2183 90.3256 45.435C90.7503 45.643 91.0796 45.9637 91.3136 46.397C91.5563 46.8303 91.6776 47.3763 91.6776 48.035V52H90.7546V48.126C90.7546 47.4067 90.5726 46.865 90.2086 46.501C89.8533 46.1283 89.3506 45.942 88.7006 45.942C88.2153 45.942 87.7906 46.0417 87.4266 46.241C87.0713 46.4317 86.794 46.7133 86.5946 47.086C86.404 47.45 86.3086 47.892 86.3086 48.412V52H85.3856V42.354H86.3086V47.047L86.1266 46.696C86.3433 46.202 86.69 45.8163 87.1666 45.539C87.6433 45.253 88.211 45.11 88.8696 45.11ZM97.5731 52V42.354H98.4961V52H97.5731ZM103.963 52.065C103.253 52.065 102.629 51.9177 102.091 51.623C101.554 51.3197 101.134 50.908 100.83 50.388C100.527 49.8593 100.375 49.257 100.375 48.581C100.375 47.905 100.518 47.307 100.804 46.787C101.099 46.267 101.498 45.8597 102 45.565C102.512 45.2617 103.084 45.11 103.716 45.11C104.358 45.11 104.925 45.2573 105.419 45.552C105.922 45.838 106.316 46.2453 106.602 46.774C106.888 47.294 107.031 47.8963 107.031 48.581C107.031 48.6243 107.027 48.672 107.018 48.724C107.018 48.7673 107.018 48.815 107.018 48.867H101.077V48.178H106.524L106.16 48.451C106.16 47.957 106.052 47.5193 105.835 47.138C105.627 46.748 105.341 46.4447 104.977 46.228C104.613 46.0113 104.193 45.903 103.716 45.903C103.248 45.903 102.828 46.0113 102.455 46.228C102.083 46.4447 101.792 46.748 101.584 47.138C101.376 47.528 101.272 47.9743 101.272 48.477V48.62C101.272 49.14 101.385 49.5993 101.61 49.998C101.844 50.388 102.165 50.6957 102.572 50.921C102.988 51.1377 103.461 51.246 103.989 51.246C104.405 51.246 104.791 51.1723 105.146 51.025C105.51 50.8777 105.822 50.6523 106.082 50.349L106.602 50.947C106.299 51.311 105.918 51.5883 105.458 51.779C105.008 51.9697 104.509 52.065 103.963 52.065ZM101.558 44.109L103.235 42.497H104.171L105.848 44.109H104.99L103.339 42.731H104.067L102.416 44.109H101.558ZM112.394 45.11C112.949 45.11 113.434 45.2183 113.85 45.435C114.275 45.643 114.604 45.9637 114.838 46.397C115.081 46.8303 115.202 47.3763 115.202 48.035V52H114.279V48.126C114.279 47.4067 114.097 46.865 113.733 46.501C113.378 46.1283 112.875 45.942 112.225 45.942C111.74 45.942 111.315 46.0417 110.951 46.241C110.596 46.4317 110.318 46.7133 110.119 47.086C109.928 47.45 109.833 47.892 109.833 48.412V52H108.91V45.175H109.794V47.047L109.651 46.696C109.868 46.202 110.214 45.8163 110.691 45.539C111.168 45.253 111.735 45.11 112.394 45.11Z" fill="#5673D6"/>
<path d="M88.9638 77H69.8648C68.2826 77 67 78.4093 67 80.1477V96.9352C67 98.6736 68.2826 100.083 69.8648 100.083H88.9638C90.546 100.083 91.8286 98.6736 91.8286 96.9352V80.1477C91.8286 78.4093 90.546 77 88.9638 77Z" stroke="#5673D6" stroke-width="2" stroke-linejoin="round"/>
<path d="M84.1892 85.3938C85.244 85.3938 86.0991 84.4543 86.0991 83.2953C86.0991 82.1364 85.244 81.1969 84.1892 81.1969C83.1344 81.1969 82.2793 82.1364 82.2793 83.2953C82.2793 84.4543 83.1344 85.3938 84.1892 85.3938Z" stroke="#5673D6" stroke-width="2" stroke-miterlimit="10"/>
<path d="M82.2792 93.7737L76.8682 87.8397C76.5239 87.4615 76.0611 87.242 75.5744 87.2262C75.0877 87.2104 74.6139 87.3993 74.2498 87.7545L67 94.8367" stroke="#5673D6" stroke-width="2" stroke-linecap="round" stroke-linejoin="round"/>
<path d="M77.5039 100.083L84.8654 91.9947C85.202 91.624 85.6526 91.4051 86.1287 91.3808C86.6048 91.3565 87.0719 91.5287 87.4384 91.8635L91.8281 95.886" stroke="#5673D6" stroke-width="2" stroke-linecap="round" stroke-linejoin="round"/>
</svg>
